HIERARCHY
ROOT root
{
	OFFSET 0.000000 0.000000 0.000000
	CHANNELS 6 Xposition Yposition Zposition Zrotation Yrotation Xrotation
	JOINT lhip
	{
		OFFSET 0.058581 -0.082280 -0.017664
		CHANNELS 3 Zrotation Yrotation Xrotation
		JOINT lknee
		{
			OFFSET 0.043451 -0.386469 0.008037
			CHANNELS 3 Zrotation Yrotation Xrotation
			JOINT lankle
			{
				OFFSET -0.014790 -0.426874 -0.037428
				CHANNELS 3 Zrotation Yrotation Xrotation
				JOINT ltoe
				{
					OFFSET 0.041054 -0.060286 0.122042
					CHANNELS 3 Zrotation Yrotation Xrotation
					End Site
					{
						OFFSET 0.000000 0.000000 0.000000
					}
				}
			}
		}
	}
	JOINT rhip
	{
		OFFSET -0.060310 -0.090513 -0.013543
		CHANNELS 3 Zrotation Yrotation Xrotation
		JOINT rknee
		{
			OFFSET -0.043257 -0.383688 -0.004843
			CHANNELS 3 Zrotation Yrotation Xrotation
			JOINT rankle
			{
				OFFSET 0.019056 -0.420046 -0.034562
				CHANNELS 3 Zrotation Yrotation Xrotation
				JOINT rtoe
				{
					OFFSET -0.034840 -0.062106 0.130323
					CHANNELS 3 Zrotation Yrotation Xrotation
					End Site
					{
						OFFSET 0.000000 0.000000 0.000000
					}
				}
			}
		}
	}
	JOINT lowerback
	{
		OFFSET 0.004439 0.124404 -0.038385
		CHANNELS 3 Zrotation Yrotation Xrotation
		JOINT upperback
		{
			OFFSET 0.004488 0.137956 0.026820
			CHANNELS 3 Zrotation Yrotation Xrotation
			JOINT chest
			{
				OFFSET -0.002265 0.056032 0.002855
				CHANNELS 3 Zrotation Yrotation Xrotation
				JOINT lowerneck
				{
					OFFSET -0.013390 0.211636 -0.033468
					CHANNELS 3 Zrotation Yrotation Xrotation
					JOINT upperneck
					{
						OFFSET 0.010113 0.088937 0.050410
						CHANNELS 3 Zrotation Yrotation Xrotation
						End Site
						{
							OFFSET 0.000000 0.000000 0.000000
						}
					}
				}
				JOINT lclavicle
				{
					OFFSET 0.071702 0.114000 -0.018898
					CHANNELS 3 Zrotation Yrotation Xrotation
					JOINT lshoulder
					{
						OFFSET 0.122921 0.045205 -0.019046
						CHANNELS 3 Zrotation Yrotation Xrotation
						JOINT lelbow
						{
							OFFSET 0.255332 -0.015649 -0.022946
							CHANNELS 3 Zrotation Yrotation Xrotation
							JOINT lwrist
							{
								OFFSET 0.265709 0.012698 -0.007375
								CHANNELS 3 Zrotation Yrotation Xrotation
								End Site
								{
									OFFSET 0.000000 0.000000 0.000000
								}
							}
						}
					}
				}
				JOINT rclavicle
				{
					OFFSET -0.082954 0.112472 -0.023707
					CHANNELS 3 Zrotation Yrotation Xrotation
					JOINT rshoulder
					{
						OFFSET -0.113228 0.046853 -0.008472
						CHANNELS 3 Zrotation Yrotation Xrotation
						JOINT relbow
						{
							OFFSET -0.260127 -0.014369 -0.031269
							CHANNELS 3 Zrotation Yrotation Xrotation
							JOINT rwrist
							{
								OFFSET -0.269108 0.006794 -0.006027
								CHANNELS 3 Zrotation Yrotation Xrotation
								End Site
								{
									OFFSET 0.000000 0.000000 0.000000
								}
							}
						}
					}
				}
			}
		}
	}
}
MOTION
Frames: 10
Frame Time: 0.033333
0.007012 -1.157545 0.970947 -167.262127 0.477057 104.742905 8.347853 0.536494 -19.447763 -1.644298 -1.851083 2.146772 -5.113096 12.234613 -6.838344 0.000000 -0.000000 0.000000 -6.473628 -7.114053 -11.678510 -0.488642 -24.033683 1.494096 2.472718 -14.997962 -3.172629 0.000000 -0.000000 0.000000 -2.247817 5.826097 -18.157633 0.316028 -0.755015 14.429968 0.390300 1.373198 -2.444271 -6.595760 19.317451 6.959601 6.778807 29.821812 -1.813263 -31.013496 -9.998355 5.542061 -60.131295 -4.624090 17.370245 14.477721 -19.950797 -12.416966 0.075602 -10.214578 -5.350853 21.178807 7.870007 5.827747 53.724679 3.650729 2.430133 -6.007667 20.284491 -18.192139 -1.716431 13.537439 -17.174997 
0.007344 -1.157328 0.970851 -167.169579 0.643764 104.525072 8.446272 1.029892 -19.544742 -1.732166 -1.839624 2.592417 -5.275652 11.715000 -6.815085 0.000000 -0.000000 0.000000 -6.176646 -7.538613 -11.392679 -0.489008 -23.637510 1.377231 2.913959 -14.998082 -3.343366 0.000000 -0.000000 0.000000 -1.433088 5.632554 -16.913354 -0.149851 -0.870173 12.880364 0.145910 1.476076 -1.626226 -6.469223 19.788722 6.337382 6.508007 29.530054 -1.627138 -30.597135 -9.699755 5.000880 -60.088029 -4.458938 16.572050 13.622163 -20.177666 -10.837392 0.633997 -10.149533 -3.811873 21.297511 7.993324 5.631845 53.665948 3.899347 1.510935 -5.365582 19.988064 -17.812432 -1.435999 13.895833 -16.233094 
0.007614 -1.156589 0.970910 -167.334515 0.618573 104.471551 8.391121 1.191790 -19.350548 -1.713552 -1.637594 2.481722 -5.323245 11.658880 -6.849525 0.000000 -0.000000 0.000000 -6.165623 -7.623694 -11.326581 -0.519144 -23.382503 1.400116 3.110898 -15.037539 -3.474012 0.000000 -0.000000 0.000000 -1.067461 5.312909 -16.240754 -0.432722 -0.942730 12.130369 -0.081716 1.723494 -1.372778 -6.232642 20.357313 6.291698 6.035108 29.151607 -2.203313 -30.311093 -8.854826 4.362401 -59.929188 -4.502493 16.318437 13.003813 -20.265582 -10.515849 0.700874 -9.382722 -2.386998 21.616684 7.814721 5.787065 53.666474 4.312491 1.617256 -5.440347 19.911366 -17.927317 -1.041688 13.877435 -15.961828 
0.007647 -1.155896 0.970896 -167.703850 0.528885 104.573041 8.213928 1.373610 -19.133123 -1.697888 -1.328755 2.052980 -5.343823 11.728301 -6.532241 0.000000 -0.000000 0.000000 -6.325463 -7.621583 -11.477723 -0.470820 -23.256657 1.412115 3.292251 -14.949520 -3.499917 0.000000 -0.000000 0.000000 -0.709677 4.971111 -15.800574 -0.656241 -1.060746 11.662956 -0.395491 2.050179 -1.374136 -5.825396 20.912702 6.403589 5.267986 28.526895 -2.622812 -29.927289 -7.670512 3.772130 -59.863842 -4.816189 16.235942 12.385156 -20.797297 -9.897936 0.277996 -8.977855 -1.240378 21.876251 7.549325 5.917004 53.731405 4.914151 2.003333 -5.689301 19.694134 -18.294537 0.137647 13.794054 -15.719632 
0.007772 -1.154892 0.970900 -167.688087 0.562990 104.366467 8.256785 1.405470 -18.700922 -1.639306 -1.539979 1.767904 -5.390364 11.694227 -6.531783 0.000000 -0.000000 0.000000 -6.261505 -7.774978 -11.112496 -0.414678 -23.130642 1.256176 3.307271 -14.921471 -3.536952 0.000000 -0.000000 0.000000 -0.716502 4.977529 -15.705669 -0.589333 -1.132899 11.665663 -0.351596 2.015479 -1.213602 -5.843629 20.850920 6.353487 5.193496 28.552907 -2.571370 -29.849948 -7.682816 3.847291 -59.956924 -4.899302 16.108061 12.378457 -20.830003 -9.871302 0.184695 -8.595849 -1.240938 21.885979 7.504716 5.826703 53.670471 4.931198 1.870638 -5.710219 19.814205 -18.270083 0.490104 13.695931 -15.630368 
0.007188 -1.155416 0.970918 -168.218900 0.416376 104.579179 7.897324 1.673886 -18.905988 -1.603254 -1.170843 1.804556 -5.241671 11.566960 -6.498112 0.000000 -0.000000 0.000000 -6.587175 -7.616088 -11.728142 -0.502248 -22.972440 1.749327 3.613088 -14.835312 -3.695213 0.000000 -0.000000 0.000000 -0.359453 4.931356 -15.090949 -0.713055 -0.889897 10.950609 -0.472145 1.735308 -1.052481 -7.089106 20.764678 5.304436 5.284931 28.908726 -2.604259 -30.138098 -6.559778 3.147273 -59.482311 -4.898981 16.148859 11.822045 -21.420353 -9.075668 -0.017289 -8.274344 -1.386641 21.692472 6.888322 5.946686 53.670584 5.879926 1.761044 -5.450840 19.837634 -18.024644 0.809755 13.814998 -15.118163 
0.007555 -1.153866 0.970979 -168.256206 0.376389 104.598258 7.857942 1.849172 -18.636989 -1.661803 -1.302678 1.563243 -5.088612 11.489946 -6.528691 0.000000 -0.000000 0.000000 -6.571327 -7.737102 -11.598907 -0.458344 -22.903984 1.632114 3.632985 -14.725792 -3.710215 0.000000 -0.000000 0.000000 -0.605659 4.989628 -15.529103 -0.551216 -0.987043 11.354755 -0.359470 1.619909 -1.186654 -7.147461 20.817527 5.475958 5.387649 28.989013 -2.438431 -30.092382 -6.652968 3.285569 -59.619462 -4.960471 16.183522 11.800099 -21.277586 -8.996711 0.477560 -8.123889 -1.433624 21.852265 6.967202 6.172752 53.628497 5.667454 1.824426 -5.611780 20.050641 -18.368844 0.333318 13.946416 -15.413768 
0.007805 -1.152616 0.970772 -168.346070 0.385677 104.436392 7.902989 1.991083 -18.296956 -1.632190 -1.259336 1.349535 -5.316440 10.897641 -6.623858 0.000000 -0.000000 0.000000 -6.536220 -7.921914 -11.372647 -0.464431 -22.809864 1.606533 3.627626 -14.514392 -3.739286 0.000000 -0.000000 0.000000 -0.689722 5.063273 -15.670468 -0.459671 -1.108428 11.754384 -0.341407 1.599767 -1.340768 -6.808577 21.097175 5.567668 5.190041 28.843324 -2.208897 -29.799404 -6.827464 3.337485 -60.099533 -4.964535 16.323835 12.143929 -21.178954 -9.168233 0.123154 -8.261649 -1.618592 21.927172 7.056194 6.232443 53.668479 5.570215 2.015459 -5.854792 20.069825 -18.602077 0.346918 13.825107 -15.596720 
0.007705 -1.151757 0.970696 -168.544550 0.355280 104.393658 7.785642 2.226029 -18.200314 -1.657723 -0.924612 1.423892 -5.319808 10.811953 -6.871947 0.000000 -0.000000 0.000000 -6.611259 -7.997504 -11.421688 -0.494468 -22.672824 1.781881 3.737391 -14.460739 -3.861491 0.000000 -0.000000 0.000000 -0.545450 5.033528 -15.444501 -0.500620 -1.153735 11.616862 -0.452423 1.536909 -1.377156 -6.828191 21.213454 5.238574 5.078490 28.992626 -2.062960 -29.738444 -6.564350 3.175845 -60.084362 -4.771813 16.428025 11.939322 -21.595234 -8.743864 0.356099 -8.422632 -1.672865 21.924288 6.888905 6.155134 53.698425 5.777529 2.248312 -5.607777 19.868055 -18.478947 0.058979 13.876193 -15.356807 
0.007467 -1.150845 0.970721 -168.812417 0.198229 104.487448 7.628273 2.248574 -18.067828 -1.822564 -0.865782 1.249697 -5.067893 11.479014 -6.691126 0.000000 -0.000000 0.000000 -6.875809 -7.976021 -11.606705 -0.469489 -22.609840 1.959917 3.824051 -14.367423 -3.888913 0.000000 -0.000000 0.000000 -0.731812 5.061456 -15.631555 -0.394281 -1.184061 12.004327 -0.468291 1.506529 -1.759605 -7.160177 21.278647 5.329619 5.131293 29.124981 -2.268077 -29.806498 -6.377358 3.168949 -59.960565 -4.809741 16.558761 11.567671 -21.657488 -8.298710 0.824855 -8.531549 -1.996177 21.946309 6.803016 6.333614 53.747565 5.863761 2.367782 -5.613359 19.793601 -18.445904 -0.494840 14.070370 -15.250384 
